<svg xmlns="http://www.w3.org/2000/svg" viewBox="0 0 800 350" width="100%" height="100%">
  <rect width="100%" height="100%" fill="#070708" rx="12"/>
  <rect x="30" y="30" width="740" height="290" rx="8" fill="#0D0D11" stroke="#1F1F23" stroke-width="1.5"/>
  
  <text x="50" y="60" font-family="monospace" font-size="12" fill="#8B5CF6" font-weight="700">CENSA COGNITIVE REASONING MAP</text>
  <line x1="50" y1="75" x2="750" y2="75" stroke="#1F1F23" stroke-width="1"/>
  
  <!-- DAG tree -->
  <g transform="translate(350, 90)">
    <rect x="0" y="0" width="100" height="40" rx="4" fill="#18181B" stroke="#8B5CF6" stroke-width="1"/>
    <text x="50" y="24" font-family="monospace" font-size="10" fill="#FFF" text-anchor="middle">GOAL INPUT</text>
  </g>
  
  <path d="M 400,130 L 300,170 M 400,130 L 500,170" stroke="#8B5CF6" stroke-width="1"/>
  
  <g transform="translate(250, 170)">
    <rect width="100" height="40" rx="4" fill="#18181B" stroke="#8B5CF6" stroke-width="1"/>
    <text x="50" y="24" font-family="monospace" font-size="10" fill="#FFF" text-anchor="middle">TASK A</text>
  </g>
  
  <g transform="translate(450, 170)">
    <rect width="100" height="40" rx="4" fill="#18181B" stroke="#8B5CF6" stroke-width="1"/>
    <text x="50" y="24" font-family="monospace" font-size="10" fill="#FFF" text-anchor="middle">TASK B</text>
  </g>

  <path d="M 300,210 L 400,250 M 500,210 L 400,250" stroke="#8B5CF6" stroke-width="1"/>

  <g transform="translate(350, 250)">
    <rect width="100" height="40" rx="4" fill="#18181B" stroke="#22C55E" stroke-width="1"/>
    <text x="50" y="24" font-family="monospace" font-size="10" fill="#FFF" text-anchor="middle">COMPLETED</text>
  </g>
</svg>