<svg xmlns="http://www.w3.org/2000/svg" viewBox="0 0 800 350" width="100%" height="100%">
  <rect width="100%" height="100%" fill="#070708" rx="12"/>
  <rect x="30" y="30" width="740" height="290" rx="8" fill="#0D0D11" stroke="#1F1F23" stroke-width="1.5"/>
  
  <text x="50" y="60" font-family="monospace" font-size="12" fill="#FBBF24" font-weight="700">ENTERPRISE WORKSPACE CONSTELLATIONS</text>
  <line x1="50" y1="75" x2="750" y2="75" stroke="#1F1F23" stroke-width="1"/>
  
  <g transform="translate(50, 100)">
    <rect width="210" height="180" rx="6" fill="#18181B" stroke="#27272A" stroke-width="1"/>
    <text x="20" y="35" font-family="system-ui, sans-serif" font-size="14" font-weight="700" fill="#FFFFFF">Automotive</text>
    <text x="20" y="65" font-family="system-ui, sans-serif" font-size="11" fill="#888">Vehicle firmware</text>
    <text x="20" y="80" font-family="system-ui, sans-serif" font-size="11" fill="#888">Signal Translation</text>
    <text x="20" y="95" font-family="system-ui, sans-serif" font-size="11" fill="#888">Safety Verification</text>
    <rect x="20" y="130" width="100" height="20" rx="4" fill="#FBBF24" fill-opacity="0.1" stroke="#FBBF24" stroke-opacity="0.3"/>
    <text x="70" y="143" font-family="monospace" font-size="8" fill="#FBBF24" text-anchor="middle">ROCm validated</text>
  </g>
  
  <g transform="translate(295, 100)">
    <rect width="210" height="180" rx="6" fill="#18181B" stroke="#27272A" stroke-width="1"/>
    <text x="20" y="35" font-family="system-ui, sans-serif" font-size="14" font-weight="700" fill="#FFFFFF">Aerospace</text>
    <text x="20" y="65" font-family="system-ui, sans-serif" font-size="11" fill="#888">Mission Planning</text>
    <text x="20" y="80" font-family="system-ui, sans-serif" font-size="11" fill="#888">Command Parsing</text>
    <text x="20" y="95" font-family="system-ui, sans-serif" font-size="11" fill="#888">AST Validation</text>
    <rect x="20" y="130" width="100" height="20" rx="4" fill="#FBBF24" fill-opacity="0.1" stroke="#FBBF24" stroke-opacity="0.3"/>
    <text x="70" y="143" font-family="monospace" font-size="8" fill="#FBBF24" text-anchor="middle">AST mapped</text>
  </g>

  <g transform="translate(540, 100)">
    <rect width="210" height="180" rx="6" fill="#18181B" stroke="#27272A" stroke-width="1"/>
    <text x="20" y="35" font-family="system-ui, sans-serif" font-size="14" font-weight="700" fill="#FFFFFF">Healthcare</text>
    <text x="20" y="65" font-family="system-ui, sans-serif" font-size="11" fill="#888">PII Redaction</text>
    <text x="20" y="80" font-family="system-ui, sans-serif" font-size="11" fill="#888">Clinical Support</text>
    <text x="20" y="95" font-family="system-ui, sans-serif" font-size="11" fill="#888">Audit Records</text>
    <rect x="20" y="130" width="100" height="20" rx="4" fill="#FBBF24" fill-opacity="0.1" stroke="#FBBF24" stroke-opacity="0.3"/>
    <text x="70" y="143" font-family="monospace" font-size="8" fill="#FBBF24" text-anchor="middle">Kavacha shielded</text>
  </g>
</svg>